HIERARCHY
ROOT Hip
{
	OFFSET 0 1.131 0.0052
	CHANNELS 6 Xposition Yposition Zposition Xrotation Yrotation Zrotation
	JOINT Abdomen
	{
		OFFSET 0 -0.047353 -0.05
		CHANNELS 3 Xrotation Zrotation Yrotation
		JOINT Chest
		{
			OFFSET 0 0.132153 0.007439
			CHANNELS 3 Xrotation Zrotation Yrotation
			JOINT Neck
			{
				OFFSET 0 0.3078 0.006161
				CHANNELS 3 Xrotation Zrotation Yrotation
				JOINT Head_comp
				{
					OFFSET 0 0.0884 0.013
					CHANNELS 3 Xrotation Yrotation Zrotation
					End Site
					{
						OFFSET -0 0.156 0.0624
					}
				}
			}
			JOINT Left_Collar
			{
				OFFSET 0.02282 0.250342 0.017193
				CHANNELS 2 Yrotation Zrotation
				JOINT Left_Shoulder
				{
					OFFSET 0.15421 0 0
					CHANNELS 3 Xrotation Yrotation Zrotation
					JOINT Left_Forearm
					{
						OFFSET 0.265212 0 0
						CHANNELS 2 Yrotation Xrotation
						JOINT Left_Hand
						{
							OFFSET 0.27571 0 0
							CHANNELS 2 Zrotation Yrotation
							JOINT L1ProxPhalanx
							{
								OFFSET 0.014142 0.001733 0.014142
								CHANNELS 3 Yrotation Zrotation Xrotation
								JOINT L1MidPhalanx
								{
									OFFSET 0.04 0 0
									CHANNELS 1 Zrotation
									JOINT L1DistPhalanx
									{
										OFFSET 0.035 0 0
										CHANNELS 1 Zrotation
										End Site
										{
											OFFSET 0.029 -0 -0
										}
									}
								}
							}
							JOINT L2ProxPhalanx
							{
								OFFSET 0.0821037 0.001578 0.0219996
								CHANNELS 2 Yrotation Zrotation
								JOINT L2MidPhalanx
								{
									OFFSET 0.04 0 0
									CHANNELS 1 Zrotation
									JOINT L2DistPhalanx
									{
										OFFSET 0.028 0 0
										CHANNELS 1 Zrotation
										End Site
										{
											OFFSET 0.02 -0 -0
										}
									}
								}
							}
							JOINT L3ProxPhalanx
							{
								OFFSET 0.083 0 0
								CHANNELS 2 Yrotation Zrotation
								JOINT L3MidPhalanx
								{
									OFFSET 0.053 0 0
									CHANNELS 1 Zrotation
									JOINT L3DistPhalanx
									{
										OFFSET 0.03 0 0
										CHANNELS 1 Zrotation
										End Site
										{
											OFFSET 0.023 -0 -0
										}
									}
								}
							}
							JOINT L4ProxPhalanx
							{
								OFFSET 0.077274 -0.000761 -0.0207055
								CHANNELS 2 Yrotation Zrotation
								JOINT L4MidPhalanx
								{
									OFFSET 0.05 0 0
									CHANNELS 1 Zrotation
									JOINT L4DistPhalanx
									{
										OFFSET 0.03 0 0
										CHANNELS 1 Zrotation
										End Site
										{
											OFFSET 0.023 -0 -0
										}
									}
								}
							}
							JOINT L5ProxPhalanx
							{
								OFFSET 0.0675499 -0.001644 -0.039
								CHANNELS 2 Yrotation Zrotation
								JOINT L5MidPhalanx
								{
									OFFSET 0.04 0 0
									CHANNELS 1 Zrotation
									JOINT L5DistPhalanx
									{
										OFFSET 0.021 0 0
										CHANNELS 1 Zrotation
										End Site
										{
											OFFSET 0.022 -0 -0
										}
									}
								}
							}
						}
					}
				}
			}
			JOINT Right_Collar
			{
				OFFSET -0.02282 0.250342 0.017193
				CHANNELS 2 Yrotation Zrotation
				JOINT Right_Shoulder
				{
					OFFSET -0.15421 0 0
					CHANNELS 3 Xrotation Yrotation Zrotation
					JOINT Right_Forearm
					{
						OFFSET -0.265212 0 0
						CHANNELS 2 Yrotation Xrotation
						JOINT Right_Hand
						{
							OFFSET -0.27571 3e-006 0
							CHANNELS 2 Zrotation Yrotation
							JOINT R1ProxPhalanx
							{
								OFFSET -0.014142 0.001733 0.014142
								CHANNELS 3 Yrotation Zrotation Xrotation
								JOINT R1MidPhalanx
								{
									OFFSET -0.04 0 0
									CHANNELS 1 Zrotation
									JOINT R1DistPhalanx
									{
										OFFSET -0.035 0 0
										CHANNELS 1 Zrotation
										End Site
										{
											OFFSET -0.029 -0 -0
										}
									}
								}
							}
							JOINT R2ProxPhalanx
							{
								OFFSET -0.0821037 0.001578 0.0219996
								CHANNELS 2 Yrotation Zrotation
								JOINT R2MidPhalanx
								{
									OFFSET -0.04 0 0
									CHANNELS 1 Zrotation
									JOINT R2DistPhalanx
									{
										OFFSET -0.028 0 0
										CHANNELS 1 Zrotation
										End Site
										{
											OFFSET -0.02 -0 -0
										}
									}
								}
							}
							JOINT R3ProxPhalanx
							{
								OFFSET -0.083 0 0
								CHANNELS 2 Yrotation Zrotation
								JOINT R3MidPhalanx
								{
									OFFSET -0.053 0 0
									CHANNELS 1 Zrotation
									JOINT R3DistPhalanx
									{
										OFFSET -0.03 0 0
										CHANNELS 1 Zrotation
										End Site
										{
											OFFSET -0.023 -0 -0
										}
									}
								}
							}
							JOINT R4ProxPhalanx
							{
								OFFSET -0.077274 -0.000761 -0.0207055
								CHANNELS 2 Yrotation Zrotation
								JOINT R4MidPhalanx
								{
									OFFSET -0.05 0 0
									CHANNELS 1 Zrotation
									JOINT R4DistPhalanx
									{
										OFFSET -0.03 0 0
										CHANNELS 1 Zrotation
										End Site
										{
											OFFSET -0.023 -0 -0
										}
									}
								}
							}
							JOINT R5ProxPhalanx
							{
								OFFSET -0.0675499 -0.001644 -0.039
								CHANNELS 2 Yrotation Zrotation
								JOINT R5MidPhalanx
								{
									OFFSET -0.04 0 0
									CHANNELS 1 Zrotation
									JOINT R5DistPhalanx
									{
										OFFSET -0.021 0 0
										CHANNELS 1 Zrotation
										End Site
										{
											OFFSET -0.022 -0 -0
										}
									}
								}
							}
						}
					}
				}
			}
		}
	}
	JOINT Left_Thigh
	{
		OFFSET 0.1118 -0.1612 -0.0442
		CHANNELS 3 Xrotation Zrotation Yrotation
		JOINT Left_Shin
		{
			OFFSET 0 -0.477856 0
			CHANNELS 1 Xrotation
			JOINT Left_Foot
			{
				OFFSET 0 -0.431952 0
				CHANNELS 2 Xrotation Zrotation
				JOINT Left_Toe
				{
					OFFSET 0 -0.0442 0.119
					CHANNELS 1 Xrotation
					End Site
					{
						OFFSET -0 -0 0.07
					}
				}
			}
		}
	}
	JOINT Right_Thigh
	{
		OFFSET -0.1118 -0.1612 -0.0442
		CHANNELS 3 Xrotation Zrotation Yrotation
		JOINT Right_Shin
		{
			OFFSET 0 -0.477856 0
			CHANNELS 1 Xrotation
			JOINT Right_Foot
			{
				OFFSET 0 -0.431952 0
				CHANNELS 2 Xrotation Zrotation
				JOINT Right_Toe
				{
					OFFSET 0 -0.0442 0.119
					CHANNELS 1 Xrotation
					End Site
					{
						OFFSET -0 -0 0.07
					}
				}
			}
		}
	}
}
MOTION
Frames: 9
Frame Time: 0.009975
-0.0995461 -0.0601808 0.0529012 -4.85579e-013 7.80809e-008 -5.10919e-006 0 0 0 0 0 0 0 0 0 0 0 0 0 0 -0 0 -0 0 0 0 0 -40.5316 -43.5896 103.283 -7.10789 -4.81548 2.69559 -7.40342 -2.98992 -6.72733 5.89092 0.508958 -5.4973 -5.3917 11.1257 1.19015 -12.1062 -9.35422 19.4153 3.33565 -41.2194 -1.46018 0 0 -0 0 -0 0 0 0 0 37.9386 28.008 73.698 26.2405 28.4472 13.118 18.2167 29.0248 19.6359 0 22.4358 32.6146 28.1246 -8.63175 30.7051 32.2053 23.7634 -7.83088 26.7354 35.1526 30.0193 0.864146 -0.771716 -0.0116398 0.0240216 -0.888089 0.771808 0 0.875551 -0.771713 -0.0117934 0 -0.875472 0.771808 0 
-0.0995461 -0.0601808 0.0529012 -4.85579e-013 7.80809e-008 -5.10919e-006 0 0 0 0 0 0 0 0 0 0 0 0 0 0 -0 0 -0 0 0 0 0 -40.5316 -43.5896 103.283 -7.10789 -4.81548 2.69559 -7.40342 -2.98992 -6.72733 5.89092 0.508958 -5.4973 -5.3917 11.1257 1.19015 -12.1062 -9.35422 19.4153 3.33565 -41.2194 -1.46018 0 0 -0 0 -0 0 0 0 0 37.9386 28.008 73.698 26.2405 28.4472 13.118 18.2167 29.0248 19.6359 0 22.4358 32.6146 28.1246 -8.63175 30.7051 32.2053 23.7634 -7.83088 26.7354 35.1526 30.0193 0.864146 -0.771716 -0.0116398 0.0240216 -0.888089 0.771808 0 0.875551 -0.771713 -0.0117934 0 -0.875472 0.771808 0 
-0.101405 -0.0600772 0.0457895 1.53665e-012 3.81339e-008 -5.08397e-006 0 -0 0 0 -0 0 0 -0 0 -0.710344 0.291073 -9.06714e-006 2.99372 -31.9775 2.15498 -24.1167 -31.11 -97.1621 -1.97651 -1.37328 14.2576 -40.6385 -43.5109 103.135 -7.24735 -4.8914 2.67736 -7.51636 -3.17497 -6.76869 5.86226 0.346656 -5.66981 -5.45475 11.0789 1.02468 -12.2457 -9.39745 19.3495 3.19963 -41.1833 -1.55288 -2.99372 31.9775 2.15498 24.1167 31.11 97.1621 -1.97651 1.37328 -14.2576 40.6385 43.5109 103.135 7.24735 4.8914 -2.67736 7.51636 3.17497 6.76869 -5.86226 -0.346656 5.66981 5.45475 -11.0789 -1.02468 12.2457 9.39745 -19.3495 -3.19963 41.1833 1.55288 0.416259 -0.65464 -0.00476799 0.0239015 -0.440133 0.654663 0 0.427608 -0.654639 -0.00489798 2.40276e-006 -0.427582 0.654663 0 
-0.10135 -0.0600729 0.0451605 1.54438e-012 3.83255e-008 -5.10952e-006 0 -0 0 0 -0 0 0 -0 0 -0.712468 0.291018 -1.44634e-010 3.00837 -32.1381 2.2943 -24.1176 -30.193 -97.7969 -1.98392 -1.38014 14.3293 -40.5316 -43.5896 103.283 -7.10789 -4.81548 2.69559 -7.40342 -2.98992 -6.72733 5.89092 0.508958 -5.4973 -5.3917 11.1257 1.19015 -12.1062 -9.35422 19.4153 3.33565 -41.2194 -1.46018 -3.00837 32.1381 2.2943 24.1176 30.193 97.7969 -1.98392 1.38014 -14.3293 40.5316 43.5896 103.283 7.10789 4.81548 -2.69559 7.40342 2.98992 6.72733 -5.89092 -0.508958 5.4973 5.3917 -11.1257 -1.19015 12.1062 9.35422 -19.4153 -3.33565 41.2194 1.46018 0.376583 -0.658114 -0.00432553 0.0240216 -0.40058 0.658133 0 0.387988 -0.658113 -0.00445653 2.41484e-006 -0.387965 0.658133 0 
-0.10135 -0.0600728 0.0451504 -2.21739e-012 3.45725e-008 -5.10954e-006 0 -0 0 0 -0 0 0 -0 0 -0.712445 0.291002 -5.72445e-015 3.00837 -32.1381 2.29477 -24.1168 -30.1884 -97.798 -1.98392 -1.38014 14.3293 -40.5316 -43.5896 103.283 -7.10789 -4.81548 2.69559 -7.40342 -2.98992 -6.72733 5.89092 0.508958 -5.4973 -5.3917 11.1257 1.19015 -12.1062 -9.35422 19.4153 3.33565 -41.2194 -1.46018 -3.00837 32.1381 2.29477 24.1168 30.1884 97.798 -1.98392 1.38014 -14.3293 40.5316 43.5896 103.283 7.10789 4.81548 -2.69559 7.40342 2.98992 6.72733 -5.89092 -0.508958 5.4973 5.3917 -11.1257 -1.19015 12.1062 9.35422 -19.4153 -3.33565 41.2194 1.46018 0.375948 -0.658116 -0.00431825 0.0240216 -0.399945 0.658135 0 0.387354 -0.658115 -0.00444926 1.70755e-008 -0.387328 0.658135 0 
-0.10135 -0.0600728 0.0451503 -8.61757e-013 3.45438e-008 -5.10954e-006 0 -0 0 0 -0 0 0 -0 0 -0.712445 0.291001 3.88256e-019 3.00837 -32.1381 2.29477 -24.1168 -30.1884 -97.798 -1.98392 -1.38014 14.3293 -40.5316 -43.5896 103.283 -7.10789 -4.81548 2.69559 -7.40342 -2.98992 -6.72733 5.89092 0.508958 -5.4973 -5.3917 11.1257 1.19015 -12.1062 -9.35422 19.4153 3.33565 -41.2194 -1.46018 -3.00837 32.1381 2.29477 24.1168 30.1884 97.798 -1.98392 1.38014 -14.3293 40.5316 43.5896 103.283 7.10789 4.81548 -2.69559 7.40342 2.98992 6.72733 -5.89092 -0.508958 5.4973 5.3917 -11.1257 -1.19015 12.1062 9.35422 -19.4153 -3.33565 41.2194 1.46018 0.375942 -0.658116 -0.00431818 0.0240216 -0.399939 0.658135 0 0.387346 -0.658115 -0.00444917 3.37241e-006 -0.387325 0.658135 0 
-0.10135 -0.0600728 0.0451503 -1.55629e-012 3.45436e-008 -5.10954e-006 0 -0 0 0 -0 0 0 -0 0 -0.712445 0.291001 -3.88256e-019 3.00837 -32.1381 2.29477 -24.1168 -30.1884 -97.798 -1.98392 -1.38014 14.3293 -40.5316 -43.5896 103.283 -7.10789 -4.81548 2.69559 -7.40342 -2.98992 -6.72733 5.89092 0.508958 -5.4973 -5.3917 11.1257 1.19015 -12.1062 -9.35422 19.4153 3.33565 -41.2194 -1.46018 -3.00837 32.1381 2.29477 24.1168 30.1884 97.798 -1.98392 1.38014 -14.3293 40.5316 43.5896 103.283 7.10789 4.81548 -2.69559 7.40342 2.98992 6.72733 -5.89092 -0.508958 5.4973 5.3917 -11.1257 -1.19015 12.1062 9.35422 -19.4153 -3.33565 41.2194 1.46018 0.375942 -0.658116 -0.00431818 0.0240216 -0.399939 0.658135 0 0.387348 -0.658115 -0.00444919 1.73316e-006 -0.387324 0.658135 0 
-0.10135 -0.0600728 0.0451503 1.62188e-012 3.45436e-008 -5.10954e-006 0 -0 0 0 -0 0 0 -0 0 -0.712445 0.291001 -3.88256e-019 3.00837 -32.1381 2.29477 -24.1168 -30.1884 -97.798 -1.98392 -1.38014 14.3293 -40.5316 -43.5896 103.283 -7.10789 -4.81548 2.69559 -7.40342 -2.98992 -6.72733 5.89092 0.508958 -5.4973 -5.3917 11.1257 1.19015 -12.1062 -9.35422 19.4153 3.33565 -41.2194 -1.46018 -3.00837 32.1381 2.29477 24.1168 30.1884 97.798 -1.98392 1.38014 -14.3293 40.5316 43.5896 103.283 7.10789 4.81548 -2.69559 7.40342 2.98992 6.72733 -5.89092 -0.508958 5.4973 5.3917 -11.1257 -1.19015 12.1062 9.35422 -19.4153 -3.33565 41.2194 1.46018 0.375942 -0.658116 -0.00431818 0.0240216 -0.399939 0.658135 0 0.387348 -0.658115 -0.00444919 2.98821e-008 -0.387322 0.658135 0 
-0.10135 -0.0600728 0.0451503 1.32068e-012 3.45436e-008 -5.10954e-006 0 -0 0 0 -0 0 0 -0 0 -0.712445 0.291001 -3.88256e-019 3.00837 -32.1381 2.29477 -24.1168 -30.1884 -97.798 -1.98392 -1.38014 14.3293 -40.5316 -43.5896 103.283 -7.10789 -4.81548 2.69559 -7.40342 -2.98992 -6.72733 5.89092 0.508958 -5.4973 -5.3917 11.1257 1.19015 -12.1062 -9.35422 19.4153 3.33565 -41.2194 -1.46018 -3.00837 32.1381 2.29477 24.1168 30.1884 97.798 -1.98392 1.38014 -14.3293 40.5316 43.5896 103.283 7.10789 4.81548 -2.69559 7.40342 2.98992 6.72733 -5.89092 -0.508958 5.4973 5.3917 -11.1257 -1.19015 12.1062 9.35422 -19.4153 -3.33565 41.2194 1.46018 0.375942 -0.658116 -0.00431818 0.0240216 -0.399939 0.658135 0 0.387348 -0.658115 -0.00444919 0 -0.387322 0.658135 0 
